HIERARCHY
ROOT hip
{
	OFFSET 0.000000 0.000000 0.000000 
	CHANNELS 6 Xposition Yposition Zposition Xrotation Zrotation Yrotation
	JOINT abdomen
	{
		OFFSET 0.000000 3.402643 0.000000 
		CHANNELS 3 Xrotation Zrotation Yrotation
		JOINT chest
		{
			OFFSET 0.000000 8.438565 -0.680529 
			CHANNELS 3 Xrotation Zrotation Yrotation
			JOINT neck
			{
				OFFSET 0.000000 10.207942 -0.272212 
				CHANNELS 3 Xrotation Zrotation Yrotation
				JOINT head
				{
					OFFSET 0.000000 3.130431 0.000000 
					CHANNELS 3 Xrotation Zrotation Yrotation
					End Site
					{
						OFFSET 0.000000 3.130435 0.000000 
					}
				}
			}
			JOINT lCollar
			{
				OFFSET 3.470700 6.669187 -0.816635 
				CHANNELS 3 Yrotation Zrotation Xrotation
				JOINT lShldr
				{
					OFFSET 3.198488 0.000000 0.000000 
					CHANNELS 3 Zrotation Yrotation Xrotation
					JOINT lForeArm
					{
						OFFSET 10.139888 0.000000 0.000000 
						CHANNELS 3 Yrotation Zrotation Xrotation
						JOINT lHand
						{
							OFFSET 8.370511 0.000000 0.000000 
							CHANNELS 3 Zrotation Yrotation Xrotation
							End Site
							{
								OFFSET 4.083176 0.000000 0.000000 
							}
						}
					}
				}
			}
			JOINT rCollar
			{
				OFFSET -3.470700 6.669187 -0.816635 
				CHANNELS 3 Yrotation Zrotation Xrotation
				JOINT rShldr
				{
					OFFSET -3.198488 0.000000 0.000000 
					CHANNELS 3 Zrotation Yrotation Xrotation
					JOINT rForeArm
					{
						OFFSET -10.139888 0.000000 0.000000 
						CHANNELS 3 Yrotation Zrotation Xrotation
						JOINT rHand
						{
							OFFSET -8.370511 0.000000 0.000000 
							CHANNELS 3 Zrotation Yrotation Xrotation
							End Site
							{
								OFFSET -4.083176 0.000000 0.000000 
							}
						}
					}
				}
			}
		}
	}
	JOINT lThigh
	{
		OFFSET 5.308129 -1.633274 1.361059 
		CHANNELS 3 Xrotation Zrotation Yrotation
		JOINT lShin
		{
			OFFSET -2.041588 -20.007561 0.000000 
			CHANNELS 3 Xrotation Zrotation Yrotation
			JOINT lFoot
			{
				OFFSET 0.000000 -19.190928 -1.224953 
				CHANNELS 3 Xrotation Yrotation Zrotation
				End Site
				{
					OFFSET 0.000000 -2.449906 4.627600 
				}
			}
		}
	}
	JOINT rThigh
	{
		OFFSET -5.308129 -1.633274 1.361059 
		CHANNELS 3 Xrotation Zrotation Yrotation
		JOINT rShin
		{
			OFFSET 2.041588 -20.007561 0.000000 
			CHANNELS 3 Xrotation Zrotation Yrotation
			JOINT rFoot
			{
				OFFSET 0.000000 -19.190928 -1.224953 
				CHANNELS 3 Xrotation Yrotation Zrotation
				End Site
				{
					OFFSET 0.000000 -2.449906 4.627600 
				}
			}
		}
	}
}
MOTION
Frames: 20
Frame Time: 0.016667
-0.409202 49.560219 2.572679 1.085210 -8.162620 59.727501 -21.665899 -1.898070 -4.037350 14.444600 3.019880 -2.344260 32.076900 8.828340 -6.984970 20.393200 5.833900 -3.116880 2.000000 -2.000000 0.000000 100.596001 178.897003 -4.504400 38.154701 -0.322355 0.084519 -179.923996 -179.904999 6.672070 -2.000000 2.000000 0.000000 -102.384003 -159.054993 7.174220 -56.963402 0.289384 0.114617 -0.056569 0.026298 -146.354996 -15.929438 5.347062 -9.376354 49.971878 2.129947 3.315402 -40.857533 9.287883 3.263471 -23.891140 6.295220 -7.483146 34.693302 -1.872129 -2.888649 -25.327188 4.456615 -0.287990 
-0.278009 49.801140 4.278546 1.094140 -7.811090 56.793400 -21.558701 -1.574440 -3.199820 14.339600 2.533860 -1.877230 31.892700 8.191650 -6.952300 20.267500 5.584510 -3.056710 2.000000 -2.000000 0.000000 101.065002 176.632996 -4.948870 39.853901 -0.319804 0.087670 -179.921997 -179.901993 5.451380 -2.000000 2.000000 0.000000 -103.352997 -160.921005 6.954100 -54.990700 0.293285 0.111983 -0.056450 0.025569 -146.091995 -16.706797 4.998422 -9.477214 53.392235 1.891991 3.504842 -38.022495 11.686850 5.090428 -22.236053 6.650042 -6.057144 32.275234 -1.956845 -2.736039 -23.999870 5.611177 0.307979 
-0.159695 50.001858 5.977842 1.093430 -7.537710 53.987400 -21.475800 -1.273260 -2.395220 14.165800 2.047750 -1.430340 31.732000 7.714830 -6.878420 20.174200 5.418350 -2.987930 2.000000 -2.000000 0.000000 101.455002 174.388000 -5.355180 41.572701 -0.317129 0.090778 -179.919998 -179.899994 4.338080 -2.000000 2.000000 0.000000 -104.194000 -162.766998 6.607020 -53.096199 0.296944 0.109329 -0.056372 0.025083 -145.916000 -17.850355 4.812628 -9.498408 57.153061 1.641636 3.685773 -34.339046 13.913046 6.162406 -20.572332 6.932670 -4.755593 29.581989 -2.014987 -2.549474 -22.515745 6.614804 0.729383 
-0.053705 50.166599 7.672542 1.142250 -7.371600 51.376801 -21.456200 -0.977576 -1.661680 13.942600 1.639410 -1.020070 31.607599 7.229400 -6.854690 20.080200 5.223870 -2.935540 2.000000 -2.000000 0.000000 101.737999 172.259003 -5.594600 43.174301 -0.314553 0.093601 -179.908997 -179.888000 3.371310 -2.000000 2.000000 0.000000 -104.975998 -164.604004 6.181840 -51.357899 0.300222 0.106788 -0.056351 0.024948 -145.867004 -19.127369 4.671384 -10.013957 60.394016 1.379444 3.843700 -29.100294 15.667355 6.205169 -19.349510 7.109351 -3.434619 27.487354 -2.054138 -2.400098 -21.278982 7.547030 1.081883 
0.034243 50.279781 9.361502 1.309340 -7.263750 48.964100 -21.461700 -0.694400 -1.017600 13.709000 1.376830 -0.663322 31.501699 6.870700 -6.833230 19.988100 5.085530 -2.906430 2.000000 -2.000000 0.000000 101.913002 170.315994 -5.745660 44.629299 -0.312146 0.096102 -179.917007 -179.895004 2.433790 -2.000000 2.000000 0.000000 -105.680000 -166.451004 5.659060 -49.785599 0.303120 0.104405 -0.056347 0.024921 -145.856995 -20.469509 4.473671 -11.003858 62.926220 1.180236 3.945418 -23.303696 15.195489 4.735023 -18.702509 7.158429 -2.309487 26.140331 -2.074209 -2.316465 -20.070269 8.194657 1.276793 
0.100127 50.337914 11.039016 1.643840 -7.204100 46.736301 -21.483801 -0.439775 -0.477575 13.474800 1.269540 -0.362747 31.373600 6.661550 -6.792780 19.907900 5.021920 -2.873410 2.000000 -2.000000 0.000000 101.950996 168.656998 -5.886280 45.850101 -0.310078 0.098153 -179.914993 -179.893997 1.554890 -2.000000 2.000000 0.000000 -106.266998 -168.356995 5.038820 -48.379398 0.305656 0.102208 -0.056288 0.024543 -145.720993 -21.668619 4.213586 -12.384166 64.409203 1.042702 4.017807 -18.500122 12.294545 2.718789 -18.821529 7.084929 -1.467324 26.068010 -2.099181 -2.274865 -19.104437 8.408916 1.277335 
0.147680 50.346813 12.698195 2.086700 -7.182780 44.670200 -21.513800 -0.215995 -0.019813 13.221000 1.220400 -0.108233 31.183201 6.597690 -6.756100 19.819201 5.005500 -2.857100 2.000000 -2.000000 0.000000 101.949997 167.348007 -6.006520 46.748501 -0.308528 0.099634 -179.914001 -179.891998 0.812704 -2.000000 2.000000 0.000000 -106.678001 -170.283005 4.233100 -47.119598 0.307881 0.100186 -0.056168 0.023759 -145.436996 -22.781334 3.904212 -14.047601 64.851692 0.996493 4.048488 -15.308873 8.513138 1.092765 -19.614952 6.985381 -0.761106 26.896286 -2.075914 -2.359414 -18.196985 8.231572 1.153475 
0.182909 50.310722 14.342153 2.549030 -7.131680 42.738800 -21.513201 -0.057060 0.431805 12.937900 1.171210 0.126583 30.915300 6.596310 -6.787970 19.701099 4.989830 -2.862820 2.000000 -2.000000 0.000000 102.017998 166.440002 -6.076990 47.314899 -0.307539 0.100555 -179.912994 -179.891006 0.217003 -2.000000 2.000000 0.000000 -106.853996 -172.179993 3.232040 -46.055099 0.309726 0.098441 -0.056053 0.022974 -145.154007 -23.690500 3.579827 -15.837315 64.233650 1.034000 4.019423 -13.378264 5.709524 0.235743 -20.924973 6.904764 -0.125897 28.614378 -2.075406 -2.458739 -17.664543 7.749465 0.967086 
0.209269 50.220490 15.975662 3.000730 -6.972940 40.982201 -21.433399 0.020984 0.862434 12.635400 1.054300 0.351385 30.523899 6.605470 -6.891070 19.533199 4.947170 -2.890280 2.000000 -2.000000 0.000000 102.233002 165.912994 -6.078210 47.607899 -0.307024 0.101028 -179.910995 -179.889999 -0.329890 -2.000000 2.000000 0.000000 -106.777000 -173.998993 2.084300 -45.234798 0.311125 0.097072 -0.055995 0.022568 -145.007996 -24.273844 3.248220 -17.695509 62.596821 1.132686 3.978784 -12.463858 4.307883 -0.103065 -22.339436 6.788617 0.683483 30.638432 -2.045818 -2.582559 -17.379868 7.297896 0.822340 
0.229900 50.057541 17.600185 3.411710 -6.658210 39.407902 -21.245701 -0.044819 1.243240 12.391700 0.850665 0.542029 29.983299 6.596520 -7.031300 19.305700 4.868210 -2.933590 2.000000 -2.000000 0.000000 102.613998 165.776001 -6.049230 47.695801 -0.306869 0.101169 -179.910004 -179.878998 -0.925572 -2.000000 2.000000 0.000000 -106.445000 -175.789001 0.916984 -44.687901 0.312047 0.096149 -0.056002 0.022622 -145.026993 -24.378418 2.945657 -19.571928 59.761703 1.310952 3.856974 -12.324277 3.699732 -0.243400 -23.780540 6.576322 1.658466 32.957188 -2.002579 -2.732982 -17.312294 7.179448 0.827977 
0.238478 49.804501 19.223248 3.830940 -6.187420 38.013500 -20.941299 -0.222259 1.548910 12.265100 0.647458 0.677136 29.280100 6.554230 -7.181190 19.009399 4.781230 -2.964100 2.000000 -2.000000 0.000000 103.092003 166.059006 -6.019280 47.617599 -0.307007 0.101043 -179.908997 -179.878006 -1.531040 -2.000000 2.000000 0.000000 -105.928001 -177.559006 -0.152719 -44.424301 0.312489 0.095701 -0.056080 0.023164 -145.223007 -24.188988 2.631565 -21.375275 56.021378 1.584381 3.681954 -12.659873 3.105572 -0.384080 -25.362911 6.225705 2.747405 35.685467 -1.964858 -2.883202 -17.611914 7.481407 1.010570 
0.235616 49.451679 20.857096 4.278270 -5.599690 36.787899 -20.570400 -0.409133 1.634680 12.216200 0.695689 0.698800 28.522800 6.380380 -7.183240 18.704100 4.722440 -2.938270 2.000000 -2.000000 0.000000 103.356003 166.654999 -6.222970 47.402802 -0.307385 0.100697 -179.908005 -179.876999 -2.009550 -2.000000 2.000000 0.000000 -105.546997 -179.289001 -0.734238 -44.453602 0.312440 0.095750 -0.056304 0.024651 -145.759995 -23.616528 2.446654 -23.088274 51.270355 1.872988 3.466665 -12.874370 2.370286 -0.538143 -27.030003 5.757866 3.931620 38.600388 -1.896230 -3.034543 -18.144306 8.070071 1.322128 
0.224441 48.994957 22.511724 4.744460 -4.973220 35.671600 -20.220301 -0.529050 1.537300 12.195800 1.062800 0.605556 27.851299 6.066150 -7.020640 18.438801 4.690810 -2.842730 2.000000 -2.000000 0.000000 103.376999 167.496002 -6.640940 47.070801 -0.307966 0.100159 -179.908005 -179.876007 -2.292750 -2.000000 2.000000 0.000000 -105.390999 179.128998 -0.739959 -44.756302 0.311933 0.096265 -0.056776 0.027511 -146.794998 -22.796314 2.471050 -24.520685 45.826111 2.199262 3.159938 -12.566196 1.526449 -0.713827 -28.952314 5.248206 5.073862 41.986542 -1.800641 -3.226677 -19.010153 8.917106 1.767738 
0.214714 48.427258 24.182869 5.269310 -4.376030 34.577000 -19.938900 -0.587861 1.324660 12.145000 1.632650 0.452064 27.374201 5.639220 -6.756330 18.271400 4.656780 -2.700680 2.000000 -2.000000 0.000000 103.269997 168.572006 -7.107180 46.650799 -0.308697 0.099474 -179.906998 -179.876007 -2.419710 -2.000000 2.000000 0.000000 -105.380997 177.811996 -0.228778 -45.312901 0.310993 0.097204 -0.057520 0.031489 -148.240005 -21.774427 2.735433 -25.581198 39.946121 2.487539 2.825933 -11.508336 0.891760 -0.706057 -31.098940 4.707895 6.113753 45.579559 -1.654518 -3.432923 -19.831861 10.026628 2.337769 
0.231611 47.750362 25.854687 5.823720 -3.847290 33.435600 -19.735399 -0.681807 1.157390 12.123400 2.057610 0.329971 27.118999 5.203960 -6.499940 18.201099 4.582590 -2.559290 2.000000 -2.000000 0.000000 103.358002 169.959000 -7.338310 46.201599 -0.309474 0.098735 -179.906998 -179.876007 -2.449000 -2.000000 2.000000 0.000000 -105.342003 176.895996 0.505984 -46.113701 0.309625 0.098538 -0.058425 0.035714 -149.783005 -20.765911 3.107840 -26.113199 34.528442 2.741581 2.475328 -10.170962 0.529568 -0.597323 -33.550644 4.129138 6.961141 49.435215 -1.464583 -3.598502 -20.525131 11.396708 3.005805 
0.297786 46.930779 27.506506 6.407530 -3.357850 32.220299 -19.580400 -0.866608 1.137300 12.181500 2.164190 0.287153 27.034201 4.788250 -6.346400 18.198200 4.450040 -2.455960 2.000000 -2.000000 0.000000 103.768997 171.746002 -7.236440 45.791500 -0.310178 0.098056 -179.906998 -179.876007 -2.409940 -2.000000 2.000000 0.000000 -105.263000 176.399002 1.249440 -47.227001 0.307693 0.100361 -0.059315 0.039410 -151.139999 -19.796906 3.437101 -25.985550 30.866373 2.908324 2.215505 -9.603806 -0.091986 -0.605002 -36.290951 3.459495 7.657078 53.498230 -1.236613 -3.816114 -20.901901 13.065969 3.737062 
0.401766 46.122131 29.127546 6.991350 -2.888550 30.886101 -19.474501 -1.104400 1.198250 12.280200 1.981120 0.307752 27.036200 4.277970 -6.233650 18.223499 4.260060 -2.364770 2.000000 -2.000000 0.000000 104.375000 173.893005 -6.927580 45.537601 -0.310611 0.097632 -179.906998 -179.876007 -2.370880 -2.000000 2.000000 0.000000 -105.282997 176.294006 2.070020 -48.721199 0.305044 0.102748 -0.060132 0.042503 -152.283005 -18.884521 3.641783 -25.216110 29.717716 2.984667 2.143583 -10.337111 -2.026855 -1.039946 -39.124020 2.689308 8.296137 57.313599 -1.020771 -3.984961 -20.775505 14.886959 4.384976 
0.512633 45.370995 30.716351 7.506520 -2.381780 29.461500 -19.417601 -1.325940 1.274730 12.320600 1.701030 0.339868 26.989300 3.594140 -6.122690 18.189301 4.023970 -2.280800 2.000000 -2.000000 0.000000 105.029999 176.401993 -6.482590 45.547298 -0.310595 0.097649 -179.906998 -179.876007 -2.439240 -2.000000 2.000000 0.000000 -105.575996 176.423004 3.026730 -50.557098 0.301706 0.105585 -0.070576 0.054663 -153.171997 -17.984299 3.712405 -24.094698 30.915400 3.000008 2.189781 -12.014254 -5.202429 -1.995944 -41.876011 1.921145 8.987054 60.756008 -0.799140 -4.123650 -20.106735 16.738441 4.816844 
0.602293 44.500488 32.276390 7.884980 -1.847610 27.956900 -19.379801 -1.485290 1.350230 12.272600 1.468890 0.372163 26.790600 2.803850 -5.983070 18.076700 3.770330 -2.196010 2.000000 -2.000000 0.000000 105.694000 179.311005 -5.909740 45.811001 -0.310144 0.098088 -179.906998 -179.876007 -2.566190 -2.000000 2.000000 0.000000 -106.171997 176.660004 4.080250 -52.578602 0.297928 0.108583 -0.070933 0.055869 -153.621002 -17.304739 3.793598 -22.845190 33.827141 2.977922 2.349370 -13.570455 -9.171408 -3.306350 -44.667343 1.273776 9.831845 64.050529 -0.587889 -4.242610 -19.050518 18.485903 5.034564 
0.631218 43.621597 33.857212 8.351950 -1.352690 26.432100 -19.370600 -1.584590 1.446880 12.253500 1.372190 0.415053 26.473600 2.060200 -5.849010 17.906401 3.555360 -2.124660 2.000000 -2.000000 0.000000 106.426003 -177.399994 -5.218860 46.377399 -0.309171 0.099025 -179.906998 -179.875000 -2.575960 -2.000000 2.000000 0.000000 -107.089996 176.945999 5.192850 -54.590302 0.294065 0.111433 -0.070707 0.055109 -153.337997 -16.857746 4.037232 -21.471561 37.232552 2.900834 2.551036 -13.851750 -13.331886 -4.430782 -47.680733 0.856851 10.895525 67.042244 -0.352280 -4.348668 -17.756023 19.903107 4.977749 
